Coordinates
version=1
nRows=22
nColumns=24
inDegrees=yes

Units are S.I. units (second, meters, Newtons, ...)
Angles are in degrees.

endheader
time	pelvis_tilt	pelvis_list	pelvis_rotation	pelvis_tx	pelvis_ty	pelvis_tz	hip_flexion_r	hip_adduction_r	hip_rotation_r	knee_angle_r	ankle_angle_r	subtalar_angle_r	mtp_angle_r	hip_flexion_l	hip_adduction_l	hip_rotation_l	knee_angle_l	ankle_angle_l	subtalar_angle_l	mtp_angle_l	lumbar_extension	lumbar_bending	lumbar_rotation
      0.73400000	     -0.22478647	      2.20218090	      4.16058050	     -0.43814874	      1.08317206	      0.33731896	      9.19738773	      0.75476802	     -3.92488852	    -16.11872492	      9.10792611	     -4.17751744	      1.62104567	     13.91669925	     -2.11667934	     -4.22268747	    -68.56445518	      4.43141009	      0.60151260	     -0.03544358	     -9.46355578	      2.95091238	     -1.01923658
      0.73816667	     -0.18808672	      2.34460122	      4.05822229	     -0.43289283	      1.08418943	      0.33789662	      8.66586216	      0.65864204	     -3.89764272	    -15.74298215	      9.19930087	     -4.02316393	      1.60838077	     14.35185769	     -1.98809061	     -4.43991658	    -68.30337549	      4.76073836	      0.82169127	     -0.07265852	     -9.52157271	      2.73929416	     -0.78814411
      0.74233333	     -0.14872405	      2.49309909	      3.94424108	     -0.42767228	      1.08516667	      0.33849805	      8.13977771	      0.55636251	     -3.86471725	    -15.37633884	      9.26478521	     -3.88255746	      1.59883980	     14.77547291	     -1.85935846	     -4.68201408	    -67.99444974	      5.08558698	      1.02907166	     -0.09648341	     -9.59452077	      2.49144511	     -0.62365751
      0.74650000	     -0.12577660	      2.63906845	      3.82056824	     -0.42245348	      1.08607931	      0.33906920	      7.63554862	      0.45126407	     -3.82364695	    -15.01387315	      9.30342628	     -3.74733636	      1.59336721	     15.20304094	     -1.72633875	     -4.93067440	    -67.63358462	      5.41386900	      1.22874812	     -0.10526226	     -9.63327466	      2.28497384	     -0.50059297
      0.75066667	     -0.06675695	      2.74872770	      3.69564926	     -0.41725953	      1.08698255	      0.33966481	      7.08644021	      0.39155499	     -3.77643561	    -14.62984030	      9.39802083	     -3.61291998	      1.58377790	     15.59061660	     -1.65057506	     -5.19123308	    -67.24198941	      5.73188817	      1.50571538	     -0.12409159	     -9.72995897	      2.08237703	     -0.23820160
      0.75483333	     -0.03215676	      2.88982318	      3.55175615	     -0.41208663	      1.08780852	      0.34025765	      6.57929806	      0.29120698	     -3.71509492	    -14.27485690	      9.43387617	     -3.47897757	      1.57772152	     15.98499546	     -1.53156979	     -5.46998808	    -66.78817182	      6.05125742	      1.72146267	     -0.13051158	     -9.79675250	      1.86795996	     -0.10507896
      0.75900000	      0.01710556	      3.00615264	      3.40850995	     -0.40692513	      1.08860097	      0.34084271	      6.05292192	      0.21794199	     -3.65091979	    -13.90729206	      9.49688698	     -3.34725776	      1.57207812	     16.35832410	     -1.44603989	     -5.75101986	    -66.29865914	      6.36838875	      1.98142544	     -0.13566002	     -9.88197968	      1.67595068	      0.07587394
      0.76316667	      0.05679649	      3.11616536	      3.26038190	     -0.40177837	      1.08931979	      0.34141920	      5.54230026	      0.14850639	     -3.58657152	    -13.54611389	      9.56255599	     -3.22562870	      1.56631783	     16.73345512	     -1.36590569	     -6.03706117	    -65.76737522	      6.67379724	      2.22787925	     -0.14027249	     -9.95598957	      1.48740363	      0.26744164
      0.76733333	      0.12571965	      3.20026089	      3.11538265	     -0.39665291	      1.09002747	      0.34197559	      4.99438344	      0.10810991	     -3.51415118	    -13.16694316	      9.62524231	     -3.12517204	      1.54738752	     17.07199218	     -1.31622108	     -6.31706781	    -65.20160791	      6.97132505	      2.47200649	     -0.16193327	    -10.06003969	      1.33333674	      0.60342408
      0.77150000	      0.15691751	      3.30382788	      2.96151169	     -0.39152774	      1.09063301	      0.34253777	      4.50317812	      0.04050206	     -3.44590161	    -12.82260649	      9.70564332	     -3.01273237	      1.53921719	     17.43529165	     -1.24364559	     -6.61468421	    -64.58177703	      7.25677520	      2.73247377	     -0.16778692	    -10.11037628	      1.16414918	      0.73524866
      0.77566667	      0.18941125	      3.39930029	      2.80655647	     -0.38642142	      1.09118315	      0.34309302	      4.01127670	     -0.02071288	     -3.37142168	    -12.47379699	      9.75481331	     -2.88990547	      1.53348307	     17.78945805	     -1.17784166	     -6.90653063	    -63.92549123	      7.54901598	      2.97052822	     -0.16945111	    -10.17916725	      0.99097389	      0.86391999
      0.77983333	      0.24945904	      3.46397956	      2.66420502	     -0.38133927	      1.09171072	      0.34360170	      3.48311068	     -0.04887386	     -3.30029457	    -12.10897725	      9.83392064	     -2.79014341	      1.52032753	     18.11173837	     -1.14189004	     -7.17841252	    -63.24107212	      7.83216188	      3.22598906	     -0.17928861	    -10.27896420	      0.86777836	      1.13013427
      0.78400000	      0.25469844	      3.55443798	      2.51368813	     -0.37624904	      1.09211093	      0.34412314	      3.02820759	     -0.11135720	     -3.22805549	    -11.77375078	      9.89067018	     -2.67430757	      1.51561881	     18.47628885	     -1.07245756	     -7.46178349	    -62.50307410	      8.09333753	      3.43964116	     -0.18006277	    -10.31174418	      0.69845538	      1.21566714
      0.78816667	      0.30427593	      3.61768812	      2.36469847	     -0.37118205	      1.09251025	      0.34461834	      2.52820521	     -0.14504055	     -3.16931194	    -11.44220315	      9.97495434	     -2.57676534	      1.50862970	     18.78464554	     -1.03653769	     -7.74013493	    -61.73121114	      8.36639483	      3.71934080	     -0.18210658	    -10.38663589	      0.59075013	      1.39397961
      0.79233333	      0.34249486	      3.66533998	      2.23324693	     -0.36612905	      1.09283942	      0.34507562	      2.03048537	     -0.16269879	     -3.10032763	    -11.08827932	     10.05971556	     -2.48199552	      1.49648602	     19.10334047	     -1.00546238	     -7.98618496	    -60.93085881	      8.61604922	      3.96229113	     -0.18945917	    -10.46648824	      0.48135384	      1.61589480
      0.79650000	      0.36166239	      3.71535175	      2.09995251	     -0.36107791	      1.09307857	      0.34552053	      1.56495374	     -0.18773667	     -3.04251261	    -10.75916469	     10.14008174	     -2.38151111	      1.48443995	     19.42891289	     -0.96754234	     -8.23118064	    -60.08769063	      8.86112823	      4.20230863	     -0.19634863	    -10.51324267	      0.37514624	      1.77144564
      0.80066667	      0.34899245	      3.76777751	      1.97274128	     -0.35601673	      1.09321734	      0.34593750	      1.14063303	     -0.22025816	     -2.99637190	    -10.44741996	     10.21530411	     -2.28271298	      1.47755533	     19.77609542	     -0.91798348	     -8.46400304	    -59.20063414	      9.08558613	      4.42894456	     -0.19858383	    -10.51768507	      0.27455528	      1.86531188
      0.80483333	      0.38170414	      3.78835816	      1.86030495	     -0.35100199	      1.09335068	      0.34632457	      0.65780240	     -0.21571727	     -2.94712806	    -10.11112779	     10.31191493	     -2.18851972	      1.46427638	     20.07488213	     -0.90073089	     -8.67097127	    -58.29585932	      9.31508341	      4.68917977	     -0.20503442	    -10.58990046	      0.20626971	      2.04381631
      0.80900000	      0.36375034	      3.81680563	      1.75303425	     -0.34595806	      1.09336018	      0.34668499	      0.23962261	     -0.22508318	     -2.91015699	     -9.80196941	     10.39561459	     -2.10162311	      1.45639760	     20.41152345	     -0.86360517	     -8.86534681	    -57.34262022	      9.51347060	      4.91484808	     -0.20733275	    -10.58967144	      0.13105137	      2.13084811
      0.81316667	      0.36232674	      3.83164117	      1.65742283	     -0.34092923	      1.09335212	      0.34701237	     -0.20201902	     -0.22021964	     -2.87697060	     -9.48059967	     10.48883888	     -2.01474568	      1.44697051	     20.72093228	     -0.83357075	     -9.03675421	    -56.35390437	      9.70252829	      5.15692392	     -0.20987750	    -10.61520312	      0.07406280	      2.24269470
      0.81733333	      0.34737624	      3.83892563	      1.57374883	     -0.33590720	      1.09326293	      0.34731220	     -0.62588264	     -0.20875045	     -2.85110563	     -9.16883928	     10.57913259	     -1.93118598	      1.43903092	     21.03504537	     -0.80035703	     -9.17958033	    -55.32903427	      9.86795362	      5.37170881	     -0.21106944	    -10.62476821	      0.02825670	      2.33040651
      0.82150000	      0.31345774	      3.83368523	      1.51265133	     -0.33087444	      1.09307402	      0.34756361	     -1.03990524	     -0.18391143	     -2.83461104	     -8.83753045	     10.68106143	     -1.84679458	      1.43365566	     21.36544861	     -0.76981379	     -9.29407765	    -54.28181118	     10.01066051	      5.56709861	     -0.21108314	    -10.61420196	     -0.00738107	      2.39778941
